<!DOCTYPE svg PUBLIC "-//W3C//DTD SVG 1.1//EN" "http://www.w3.org/Graphics/SVG/1.1/DTD/svg11.dtd">
<!-- Uploaded to: SVG Repo, www.svgrepo.com, Transformed by: SVG Repo Mixer Tools -->
<svg height="64px" width="64px" version="1.1" id="Layer_1" xmlns="http://www.w3.org/2000/svg" xmlns:xlink="http://www.w3.org/1999/xlink" viewBox="-102.4 -102.4 716.80 716.80" xml:space="preserve" fill="#000000">
<g id="SVGRepo_bgCarrier" stroke-width="0"/>
<g id="SVGRepo_tracerCarrier" stroke-linecap="round" stroke-linejoin="round"/>
<g id="SVGRepo_iconCarrier"> <path style="fill:#1b990a;" d="M256.001,78.041c-103.222,0-187.198,83.977-187.198,187.198c0,50.722,19.955,98.209,56.188,133.714 c3.57,3.498,9.557,3.103,12.647-0.819c2.652-3.366,2.323-8.339-0.735-11.336c-8.772-8.595-16.483-17.97-23.092-27.961h53.517 c2.179,6.987,4.607,13.758,7.294,20.262c1.795,4.344,6.77,6.409,11.114,4.613c4.343-1.795,6.408-6.771,4.613-11.114 c-11.798-28.539-18.425-62.561-19.322-98.851h76.466c0,4.699,3.81,8.509,8.509,8.509c4.699,0,8.509-3.81,8.509-8.509h76.466 c-0.898,36.292-7.525,70.315-19.325,98.857c-1.684,4.074,0.12,8.906,4.07,10.868c4.363,2.168,9.798,0.131,11.656-4.366 c2.69-6.506,5.117-13.279,7.298-20.27h53.517c-6.609,9.99-14.32,19.363-23.091,27.958c-3.357,3.289-3.411,8.676-0.122,12.033 c3.288,3.357,8.677,3.412,12.033,0.122c36.232-35.504,56.187-82.991,56.187-133.713C443.199,162.017,359.223,78.041,256.001,78.041z M358.004,256.73c-0.568-23.811-3.522-46.831-8.637-68.072h58.58c10.448,20.645,16.814,43.69,18.021,68.072H358.004z M398.056,171.64h-53.367c-4.11-13.204-9.115-25.533-14.965-36.701c-6.615-12.628-14.055-23.304-22.122-31.875 C345,114.991,376.821,139.521,398.056,171.64z M247.492,95.943v75.698h-62.303c3.467-10.299,7.532-19.958,12.166-28.805 C211.367,116.083,228.918,99.775,247.492,95.943z M264.51,95.943c18.574,3.832,36.125,20.14,50.138,46.893 c4.634,8.847,8.697,18.506,12.166,28.805h-62.303V95.943H264.51z M204.402,103.064c-8.068,8.571-15.508,19.246-22.122,31.875 c-5.85,11.168-10.855,23.498-14.965,36.701h-53.367C135.181,139.521,167.002,114.991,204.402,103.064z M86.033,256.73 c1.206-24.383,7.573-47.427,18.021-68.072h58.58c-5.115,21.241-8.069,44.261-8.637,68.072H86.033z M162.638,341.82H103.92 c-10.591-20.975-16.721-44.048-17.892-68.072h67.971C154.563,297.579,157.497,320.535,162.638,341.82z M171.018,256.73 c0.599-23.998,3.729-47.064,9.137-68.072h67.337v68.072H171.018z M264.51,188.658h67.337c5.409,21.008,8.539,44.075,9.137,68.072 h-76.475v-68.072H264.51z M349.364,341.82c5.141-21.286,8.076-44.242,8.639-68.072h67.971c-1.171,24.024-7.301,47.097-17.892,68.072 H349.364z"/> <path style="fill:#66BF00;" d="M435.271,445.83c4.203,3.4,4.203,9.814,0,13.215C416.097,474.556,366.316,512,332.583,512 c-42.545,0-76.581-26.667-76.581-59.563s34.036-59.563,76.581-59.563C366.315,392.874,416.096,430.319,435.271,445.83z"/> <path style="fill:#58AB23;" d="M435.271,445.83c-1.281-1.036-2.707-2.176-4.247-3.39c-19.525,15.746-68.728,52.542-102.173,52.542 c-34.168,0-62.829-17.206-72.8-41.018C257.088,486.152,290.699,512,332.583,512c33.733,0,83.514-37.445,102.688-52.956 C439.473,455.644,439.473,449.231,435.271,445.83z"/> <path style="fill:#66BF00;" d="M76.732,445.83c-4.203,3.4-4.203,9.814,0,13.215C95.906,474.556,145.687,512,179.42,512 c42.545,0,76.581-26.667,76.581-59.563s-34.036-59.563-76.581-59.563C145.687,392.874,95.906,430.319,76.732,445.83z"/> <path style="fill:#58AB23;" d="M76.732,445.83c1.281-1.036,2.707-2.176,4.247-3.39c19.525,15.746,68.728,52.542,102.173,52.542 c34.168,0,62.829-17.206,72.8-41.018C254.915,486.152,221.303,512,179.42,512c-33.733,0-83.514-37.445-102.688-52.956 C72.528,455.644,72.528,449.231,76.732,445.83z"/> <path style="fill:#66BF00;" d="M262.608,264.659c-3.4-4.203-9.814-4.203-13.214,0c-15.511,19.174-52.956,68.955-52.956,102.688 c0,42.545,26.667,76.581,59.563,76.581s59.563-34.036,59.563-76.581C315.564,333.614,278.119,283.833,262.608,264.659z"/> <g> <path style="fill:#58AB23;" d="M366.618,443.928h-47.529l11.001-11.001c3.323-3.323,3.323-8.71,0-12.033 c-3.323-3.324-8.71-3.324-12.033,0l-23.035,23.035h-46.744c-0.508,2.78-0.785,5.619-0.785,8.509s0.277,5.729,0.785,8.509h46.744 l23.035,23.035c3.323,3.324,8.71,3.324,12.033,0c3.323-3.323,3.323-8.71,0-12.033l-11.001-11.003h47.53 c4.699,0,8.509-3.81,8.509-8.509S371.318,443.928,366.618,443.928z"/> <path style="fill:#58AB23;" d="M216.981,443.928l-23.035-23.035c-3.323-3.324-8.71-3.324-12.033,0 c-3.323,3.323-3.323,8.71,0,12.033l11.001,11.001h-47.53c-4.699,0-8.509,3.81-8.509,8.509s3.81,8.509,8.509,8.509h47.53 l-11.001,11.001c-3.323,3.323-3.323,8.71,0,12.033c3.323,3.324,8.71,3.324,12.033,0l23.035-23.033h38.235 c0.508-2.78,0.785-5.619,0.785-8.509s-0.277-5.729-0.785-8.509H216.981z"/> <path style="fill:#58AB23;" d="M261.15,443.627c30.482-3.336,54.414-35.98,54.414-76.28c0-2.287-0.186-4.653-0.512-7.073 c-3.416,34.174-24.191,61.045-50.542,65.862v-21.228l23.035-23.035c3.324-3.323,3.324-8.71,0-12.033 c-3.323-3.323-8.71-3.323-12.033,0l-11.001,11.001v-47.53c0-4.699-3.81-8.509-8.509-8.509c-4.699,0-8.509,3.81-8.509,8.509v47.53 l-11.001-11.001c-3.323-3.323-8.71-3.323-12.033,0c-3.324,3.323-3.324,8.71,0,12.033l23.035,23.035v21.228 c-26.351-4.817-47.126-31.688-50.542-65.862c-0.325,2.42-0.512,4.786-0.512,7.073c0,40.3,23.932,72.945,54.414,76.28 c0.488,0.054,0.977,0.103,1.469,0.143c0.347,0.027,0.692,0.054,1.04,0.073c0.875,0.051,1.754,0.085,2.639,0.085 c0.885,0,1.763-0.034,2.639-0.085c0.348-0.019,0.695-0.047,1.04-0.073C260.172,443.731,260.662,443.682,261.15,443.627z"/> </g> <path style="fill:#72CCC5;" d="M17.748,120.586c0-17.537,23.699-51.554,35.721-67.683c3.407-4.57,10.241-4.57,13.647,0 c12.023,16.13,35.721,50.147,35.721,67.683c0,23.497-19.048,42.545-42.545,42.545S17.748,144.084,17.748,120.586z"/> <path style="fill:#11BBA3;" d="M68.803,149.152c-23.497,0-42.545-19.047-42.545-42.545c0-8.107,5.068-19.737,11.703-31.492 c-10.27,15.847-20.212,34.114-20.212,45.471c0,23.497,19.048,42.545,42.545,42.545c18.332,0,33.954-11.595,39.937-27.85 C92.451,143.804,81.252,149.152,68.803,149.152z"/> <circle style="fill:#8FDED7;" cx="68.807" cy="103.566" r="17.018"/> <path style="fill:#72CCC5;" d="M409.163,120.586c0-17.537,23.699-51.554,35.721-67.683c3.407-4.57,10.241-4.57,13.647,0 c12.023,16.13,35.721,50.147,35.721,67.683c0,23.497-19.048,42.545-42.545,42.545C428.21,163.131,409.163,144.084,409.163,120.586z"/> <path style="fill:#11BBA3;" d="M460.217,149.152c-23.497,0-42.545-19.047-42.545-42.545c0-8.107,5.068-19.737,11.703-31.492 c-10.27,15.847-20.212,34.114-20.212,45.471c0,23.497,19.048,42.545,42.545,42.545c18.332,0,33.954-11.595,39.937-27.85 C483.866,143.804,472.667,149.152,460.217,149.152z"/> <circle style="fill:#8FDED7;" cx="460.221" cy="103.566" r="17.018"/> <path style="fill:#72CCC5;" d="M230.474,44.005c0-9.159,10.773-27.965,18.323-40.018c3.329-5.316,11.08-5.316,14.409,0 c7.549,12.053,18.323,30.859,18.323,40.018c0,14.098-11.429,25.527-25.527,25.527C241.903,69.532,230.474,58.103,230.474,44.005z"/> <path style="fill:#11BBA3;" d="M264.51,53.974c-14.098,0-25.527-11.429-25.527-25.527c0-4.41,2.501-11.057,5.933-18.109 c-6.889,11.568-14.442,25.999-14.442,33.668c0,14.098,11.429,25.527,25.527,25.527c12.842,0,23.466-9.484,25.257-21.83 C276.775,51.606,270.92,53.974,264.51,53.974z"/> <circle style="fill:#8FDED7;" cx="264.514" cy="35.496" r="8.509"/> </g>
</svg>