<!DOCTYPE svg PUBLIC "-//W3C//DTD SVG 1.1//EN" "http://www.w3.org/Graphics/SVG/1.1/DTD/svg11.dtd">
<!-- Uploaded to: SVG Repo, www.svgrepo.com, Transformed by: SVG Repo Mixer Tools -->
<svg fill="#5c9550" version="1.1" id="Capa_1" xmlns="http://www.w3.org/2000/svg" xmlns:xlink="http://www.w3.org/1999/xlink" width="64px" height="64px" viewBox="-114.21 -114.21 622.25 622.25" xml:space="preserve" stroke="#5c9550">
<g id="SVGRepo_bgCarrier" stroke-width="0"/>
<g id="SVGRepo_tracerCarrier" stroke-linecap="round" stroke-linejoin="round"/>
<g id="SVGRepo_iconCarrier"> <g> <g> <path d="M352.313,254.742c-21.186,1.307-49.051,22.474-75.928,34.648c-32.938,14.896-84.219,2.906-84.224,2.906 c7.91-3.693,40.054-11.351,46.526-14.21c34.411-15.126,31.501-46.688,15.112-46.423c-21.658,0.363-34.365,5.678-77.564,11.568 c-32.746,4.455-71.477,2.826-90.053,9.918c-26.224,10.016-68.465,77.41-68.465,77.41l65.3,63.268c0,0,40.426-39.799,60.094-39.799 c44.827,0,46.646-0.618,88.268-2.864c17.689-0.948,21.385-1.673,31.516-5.104c53.949-18.224,111.879-66.802,112.943-72.647 C378.305,259.879,363.508,254.046,352.313,254.742z"/> <path d="M223.432,209.779c57.838,0,104.896-47.047,104.896-104.889C328.329,47.049,281.27,0,223.432,0 c-57.837,0-104.899,47.049-104.899,104.89C118.533,162.732,165.594,209.779,223.432,209.779z M151.877,150.256 c7.749-3.821,5.387-11.653,2.761-18.157c-2.767-6.853-4.864-16.185,0.162-22.619c4.144-5.337,12.192-7.636,17.88-10.855 c6.863-3.87,12.783-9.524,15.173-17.195c2.191-7.012-1.205-13.39-7.272-16.933c-5.29-3.076-11.765-2.693-17.654-2.881 c-5.178-0.147-11.068-0.589-13.579-4.624c15.74-24.268,43.067-40.341,74.083-40.341c15.76,0,30.575,4.156,43.403,11.417 c-0.662,4.97-2.508,9.5-6.631,12.929c-4.172,3.432-9.877,4.81-14.896,6.503c-4.771,1.583-9.555,3.499-13.143,7.175 c-4.213,4.316-5.013,10.322-5.113,16.081c-0.064,3.595-0.042,8.718,3.146,11.141c2.404,1.818,5.565,0.545,7.85-0.81 c7.143-4.236,12.311-11.346,19.955-14.83c2.307-1.038,4.721-0.986,6.305,1.169c4.652,6.284,2.234,14.25-1.895,20.017 c-2.561,3.552-5.902,6.566-9.047,9.586c-2.381,2.298-3.975,3.72-7.08,4.817c-5.701,2.022-4.75,10.821-2.047,14.813 c2.311,3.393,5.293,6.205,7.572,9.684c1.68,2.583,3.516,5.103,5.727,7.252c3.889,3.778,9.062,4.625,14.271,4.903 c8.51,0.457,17.877,2.398,26.174-0.201c2.674-0.834,4.848-3.073,6.85-4.917c1.02-0.929,1.928-1.614,2.781-2 c-9.115,28.93-32.773,51.458-62.356,59.019c-4.479-3.95-10.36-6.748-15.14-10.1c-1.764-1.229-6.061-3.821-6.272-6.311 c-0.353-4.294,5.778-3.319,8.385-3.079c3.349,0.307,6.69,0.909,10.062,0.612c3.781-0.331,7.16-2.801,9.881-5.283 c5.355-4.888,7.119-12.788,4.398-19.461c-2.516-6.159-8.383-9.128-13.896-12.169c-2.5-1.378-4.522-2.417-6.597-4.478 c-2.524-2.503-6.367-3.308-9.826-3.104c-5.934,0.335-10.225,4.129-16.231,1.161c-4.178-2.046-7.121-4.999-11.925-5.604 c-8.28-1.056-16.354,2.01-21.264,8.921c-8.335,11.752-4.727,26.391,0.116,38.861c1.601,4.112,3.713,8.802,6.42,13.138 c-14.363-7.352-26.456-18.528-34.934-32.171C149.643,151.129,150.817,150.782,151.877,150.256z"/> </g> </g> </g>
</svg>